HIERARCHY
ROOT Hips
{
	OFFSET -339.306915 540.749023 89.171944
	CHANNELS 6 Xposition Yposition Zposition Zrotation Yrotation Xrotation
	JOINT Spine
	{
		OFFSET 0.000000 2.080078 8.814247
		CHANNELS 6 Xposition Yposition Zposition Zrotation Yrotation Xrotation
		JOINT Spine1
		{
			OFFSET 0.000000 0.000000 8.844139
			CHANNELS 6 Xposition Yposition Zposition Zrotation Yrotation Xrotation
			JOINT Spine2
			{
				OFFSET 0.000000 0.000000 11.682266
				CHANNELS 6 Xposition Yposition Zposition Zrotation Yrotation Xrotation
				JOINT Spine3
				{
					OFFSET 0.000000 0.000000 11.746696
					CHANNELS 6 Xposition Yposition Zposition Zrotation Yrotation Xrotation
					JOINT Neck
					{
						OFFSET 0.000000 0.000000 17.658264
						CHANNELS 6 Xposition Yposition Zposition Zrotation Yrotation Xrotation
						JOINT Neck1
						{
							OFFSET 0.000000 0.000000 5.101517
							CHANNELS 6 Xposition Yposition Zposition Zrotation Yrotation Xrotation
							JOINT Head
							{
								OFFSET 0.000000 0.000000 5.101517
								CHANNELS 6 Xposition Yposition Zposition Zrotation Yrotation Xrotation
								JOINT HeadEnd
								{
									OFFSET 0.000000 0.000000 11.655090
									CHANNELS 6 Xposition Yposition Zposition Zrotation Yrotation Xrotation
									End Site
									{
										OFFSET 0.000000 0.000000 0.100006
									}
								}
							}
						}
					}
					JOINT RightShoulder
					{
						OFFSET -2.625397 0.000000 11.175217
						CHANNELS 6 Xposition Yposition Zposition Zrotation Yrotation Xrotation
						JOINT RightArm
						{
							OFFSET 0.000000 0.000000 10.434708
							CHANNELS 6 Xposition Yposition Zposition Zrotation Yrotation Xrotation
							JOINT RightForeArm
							{
								OFFSET 0.000000 0.000000 29.628418
								CHANNELS 6 Xposition Yposition Zposition Zrotation Yrotation Xrotation
								JOINT RightHand
								{
									OFFSET 0.000000 0.000000 22.857605
									CHANNELS 6 Xposition Yposition Zposition Zrotation Yrotation Xrotation
									JOINT RightHandThumb1
									{
										OFFSET -2.867310 -2.944275 3.959564
										CHANNELS 6 Xposition Yposition Zposition Zrotation Yrotation Xrotation
										JOINT RightHandThumb2
										{
											OFFSET 0.000000 0.000000 3.350403
											CHANNELS 6 Xposition Yposition Zposition Zrotation Yrotation Xrotation
											JOINT RightHandThumb3
											{
												OFFSET 0.000000 0.000000 3.756516
												CHANNELS 6 Xposition Yposition Zposition Zrotation Yrotation Xrotation
												JOINT RightHandThumb4
												{
													OFFSET 0.000000 0.000000 3.147339
													CHANNELS 6 Xposition Yposition Zposition Zrotation Yrotation Xrotation
													End Site
													{
														OFFSET 0.000000 0.000000 0.100006
													}
												}
											}
										}
									}
									JOINT RightHandIndex1
									{
										OFFSET -0.086761 -2.345276 10.030899
										CHANNELS 6 Xposition Yposition Zposition Zrotation Yrotation Xrotation
										JOINT RightHandIndex2
										{
											OFFSET 0.000000 0.000000 4.061096
											CHANNELS 6 Xposition Yposition Zposition Zrotation Yrotation Xrotation
											JOINT RightHandIndex3
											{
												OFFSET 0.000000 0.000000 3.248871
												CHANNELS 6 Xposition Yposition Zposition Zrotation Yrotation Xrotation
												JOINT RightHandIndex4
												{
													OFFSET 0.000000 0.000000 2.639709
													CHANNELS 6 Xposition Yposition Zposition Zrotation Yrotation Xrotation
													End Site
													{
														OFFSET 0.000000 0.000000 0.100006
													}
												}
											}
										}
									}
									JOINT RightHandMiddle1
									{
										OFFSET 0.104095 -0.006775 9.502945
										CHANNELS 6 Xposition Yposition Zposition Zrotation Yrotation Xrotation
										JOINT RightHandMiddle2
										{
											OFFSET 0.000000 0.000000 4.568726
											CHANNELS 6 Xposition Yposition Zposition Zrotation Yrotation Xrotation
											JOINT RightHandMiddle3
											{
												OFFSET 0.000000 0.000000 3.654984
												CHANNELS 6 Xposition Yposition Zposition Zrotation Yrotation Xrotation
												JOINT RightHandMiddle4
												{
													OFFSET 0.000000 0.000000 2.741241
													CHANNELS 6 Xposition Yposition Zposition Zrotation Yrotation Xrotation
													End Site
													{
														OFFSET 0.000000 0.000000 0.100006
													}
												}
											}
										}
									}
									JOINT RightHandRing1
									{
										OFFSET 0.086761 2.267456 8.921707
										CHANNELS 6 Xposition Yposition Zposition Zrotation Yrotation Xrotation
										JOINT RightHandRing2
										{
											OFFSET 0.000000 0.000000 4.061096
											CHANNELS 6 Xposition Yposition Zposition Zrotation Yrotation Xrotation
											JOINT RightHandRing3
											{
												OFFSET 0.000000 0.000000 3.654984
												CHANNELS 6 Xposition Yposition Zposition Zrotation Yrotation Xrotation
												JOINT RightHandRing4
												{
													OFFSET 0.000000 0.000000 2.741241
													CHANNELS 6 Xposition Yposition Zposition Zrotation Yrotation Xrotation
													End Site
													{
														OFFSET 0.000000 0.000000 0.100006
													}
												}
											}
										}
									}
									JOINT RightHandPinky1
									{
										OFFSET -0.173492 4.467224 7.976990
										CHANNELS 6 Xposition Yposition Zposition Zrotation Yrotation Xrotation
										JOINT RightHandPinky2
										{
											OFFSET 0.000000 0.000000 3.350403
											CHANNELS 6 Xposition Yposition Zposition Zrotation Yrotation Xrotation
											JOINT RightHandPinky3
											{
												OFFSET 0.000000 0.000000 2.842758
												CHANNELS 6 Xposition Yposition Zposition Zrotation Yrotation Xrotation
												JOINT RightHandPinky4
												{
													OFFSET 0.000000 0.000000 2.639709
													CHANNELS 6 Xposition Yposition Zposition Zrotation Yrotation Xrotation
													End Site
													{
														OFFSET 0.000000 0.000000 0.100006
													}
												}
											}
										}
									}
									JOINT RightForeArmEnd
									{
										OFFSET 0.000000 0.000000 0.000000
										CHANNELS 6 Xposition Yposition Zposition Zrotation Yrotation Xrotation
										End Site
										{
											OFFSET 0.000000 0.000000 0.100006
										}
									}
								}
								JOINT RightArmEnd
								{
									OFFSET 0.000000 0.000000 0.000000
									CHANNELS 6 Xposition Yposition Zposition Zrotation Yrotation Xrotation
									End Site
									{
										OFFSET 0.000000 0.000000 0.100006
									}
								}
							}
						}
					}
					JOINT LeftShoulder
					{
						OFFSET 2.625397 0.000000 11.175217
						CHANNELS 6 Xposition Yposition Zposition Zrotation Yrotation Xrotation
						JOINT LeftArm
						{
							OFFSET 0.000000 0.000000 10.813629
							CHANNELS 6 Xposition Yposition Zposition Zrotation Yrotation Xrotation
							JOINT LeftForeArm
							{
								OFFSET 0.000000 0.000000 28.724777
								CHANNELS 6 Xposition Yposition Zposition Zrotation Yrotation Xrotation
								JOINT LeftHand
								{
									OFFSET 0.644379 0.328857 25.716171
									CHANNELS 6 Xposition Yposition Zposition Zrotation Yrotation Xrotation
									JOINT LeftHandThumb1
									{
										OFFSET 2.867310 -2.944275 3.959564
										CHANNELS 6 Xposition Yposition Zposition Zrotation Yrotation Xrotation
										JOINT LeftHandThumb2
										{
											OFFSET 0.000000 0.000000 3.350403
											CHANNELS 6 Xposition Yposition Zposition Zrotation Yrotation Xrotation
											JOINT LeftHandThumb3
											{
												OFFSET 0.000000 0.000000 3.756516
												CHANNELS 6 Xposition Yposition Zposition Zrotation Yrotation Xrotation
												JOINT LeftHandThumb4
												{
													OFFSET 0.000000 0.000000 3.100006
													CHANNELS 6 Xposition Yposition Zposition Zrotation Yrotation Xrotation
													End Site
													{
														OFFSET 0.000000 0.000000 0.100006
													}
												}
											}
										}
									}
									JOINT LeftHandIndex1
									{
										OFFSET 0.086761 -2.345276 10.030899
										CHANNELS 6 Xposition Yposition Zposition Zrotation Yrotation Xrotation
										JOINT LeftHandIndex2
										{
											OFFSET 0.000000 0.000000 4.061096
											CHANNELS 6 Xposition Yposition Zposition Zrotation Yrotation Xrotation
											JOINT LeftHandIndex3
											{
												OFFSET 0.000000 0.000000 3.248871
												CHANNELS 6 Xposition Yposition Zposition Zrotation Yrotation Xrotation
												JOINT LeftHandIndex4
												{
													OFFSET 0.000000 0.000000 2.639709
													CHANNELS 6 Xposition Yposition Zposition Zrotation Yrotation Xrotation
													End Site
													{
														OFFSET 0.000000 0.000000 0.100006
													}
												}
											}
										}
									}
									JOINT LeftHandMiddle1
									{
										OFFSET -0.104095 -0.006775 9.502945
										CHANNELS 6 Xposition Yposition Zposition Zrotation Yrotation Xrotation
										JOINT LeftHandMiddle2
										{
											OFFSET 0.000000 0.000000 4.568726
											CHANNELS 6 Xposition Yposition Zposition Zrotation Yrotation Xrotation
											JOINT LeftHandMiddle3
											{
												OFFSET 0.000000 0.000000 3.654984
												CHANNELS 6 Xposition Yposition Zposition Zrotation Yrotation Xrotation
												JOINT LeftHandMiddle4
												{
													OFFSET 0.000000 0.000000 2.741241
													CHANNELS 6 Xposition Yposition Zposition Zrotation Yrotation Xrotation
													End Site
													{
														OFFSET 0.000000 0.000000 0.100006
													}
												}
											}
										}
									}
									JOINT LeftHandRing1
									{
										OFFSET -0.086761 2.267456 8.921707
										CHANNELS 6 Xposition Yposition Zposition Zrotation Yrotation Xrotation
										JOINT LeftHandRing2
										{
											OFFSET 0.000000 0.000000 4.061096
											CHANNELS 6 Xposition Yposition Zposition Zrotation Yrotation Xrotation
											JOINT LeftHandRing3
											{
												OFFSET 0.000000 0.000000 3.654984
												CHANNELS 6 Xposition Yposition Zposition Zrotation Yrotation Xrotation
												JOINT LeftHandRing4
												{
													OFFSET 0.000000 0.000000 2.741241
													CHANNELS 6 Xposition Yposition Zposition Zrotation Yrotation Xrotation
													End Site
													{
														OFFSET 0.000000 0.000000 0.100006
													}
												}
											}
										}
									}
									JOINT LeftHandPinky1
									{
										OFFSET 0.173492 4.467224 7.976990
										CHANNELS 6 Xposition Yposition Zposition Zrotation Yrotation Xrotation
										JOINT LeftHandPinky2
										{
											OFFSET 0.000000 0.000000 3.350403
											CHANNELS 6 Xposition Yposition Zposition Zrotation Yrotation Xrotation
											JOINT LeftHandPinky3
											{
												OFFSET 0.000000 0.000000 2.842758
												CHANNELS 6 Xposition Yposition Zposition Zrotation Yrotation Xrotation
												JOINT LeftHandPinky4
												{
													OFFSET 0.000000 0.000000 2.639709
													CHANNELS 6 Xposition Yposition Zposition Zrotation Yrotation Xrotation
													End Site
													{
														OFFSET 0.000000 0.000000 0.100006
													}
												}
											}
										}
									}
									JOINT LeftForeArmEnd
									{
										OFFSET 0.000000 0.000000 0.000000
										CHANNELS 6 Xposition Yposition Zposition Zrotation Yrotation Xrotation
										End Site
										{
											OFFSET 0.000000 0.000000 0.100006
										}
									}
								}
								JOINT LeftArmEnd
								{
									OFFSET 0.000000 0.000000 0.000000
									CHANNELS 6 Xposition Yposition Zposition Zrotation Yrotation Xrotation
									End Site
									{
										OFFSET 0.000000 0.000000 0.100006
									}
								}
							}
						}
					}
				}
			}
		}
	}
	JOINT RightUpLeg
	{
		OFFSET -11.289948 0.000000 0.000000
		CHANNELS 6 Xposition Yposition Zposition Zrotation Yrotation Xrotation
		JOINT RightLeg
		{
			OFFSET 0.000000 0.000000 -38.200329
			CHANNELS 6 Xposition Yposition Zposition Zrotation Yrotation Xrotation
			JOINT RightFoot
			{
				OFFSET 0.000000 0.000000 -39.900856
				CHANNELS 6 Xposition Yposition Zposition Zrotation Yrotation Xrotation
				JOINT RightToeBase
				{
					OFFSET 0.000000 -15.261658 0.000001
					CHANNELS 6 Xposition Yposition Zposition Zrotation Yrotation Xrotation
					JOINT RightToeBaseEnd
					{
						OFFSET 0.000000 -7.370728 0.000001
						CHANNELS 6 Xposition Yposition Zposition Zrotation Yrotation Xrotation
						End Site
						{
							OFFSET 0.000000 0.000000 0.100000
						}
					}
				}
				JOINT RightLegEnd
				{
					OFFSET 0.000000 0.000000 0.000000
					CHANNELS 6 Xposition Yposition Zposition Zrotation Yrotation Xrotation
					End Site
					{
						OFFSET 0.000000 0.000000 0.100000
					}
				}
			}
			JOINT RightUpLegEnd
			{
				OFFSET 0.000000 0.000000 0.000000
				CHANNELS 6 Xposition Yposition Zposition Zrotation Yrotation Xrotation
				End Site
				{
					OFFSET 0.000000 0.000000 0.099998
				}
			}
		}
	}
	JOINT LeftUpLeg
	{
		OFFSET 11.315674 0.000000 0.000000
		CHANNELS 6 Xposition Yposition Zposition Zrotation Yrotation Xrotation
		JOINT LeftLeg
		{
			OFFSET 0.000000 0.000000 -38.200329
			CHANNELS 6 Xposition Yposition Zposition Zrotation Yrotation Xrotation
			JOINT LeftFoot
			{
				OFFSET 0.000000 0.000000 -39.900856
				CHANNELS 6 Xposition Yposition Zposition Zrotation Yrotation Xrotation
				JOINT LeftToeBase
				{
					OFFSET 0.000000 -15.261658 0.000001
					CHANNELS 6 Xposition Yposition Zposition Zrotation Yrotation Xrotation
					JOINT LeftToeBaseEnd
					{
						OFFSET 0.000000 -7.539978 0.000001
						CHANNELS 6 Xposition Yposition Zposition Zrotation Yrotation Xrotation
						End Site
						{
							OFFSET 0.000000 0.000000 0.100000
						}
					}
				}
				JOINT LeftLegEnd
				{
					OFFSET 0.000000 0.000000 0.000000
					CHANNELS 6 Xposition Yposition Zposition Zrotation Yrotation Xrotation
					End Site
					{
						OFFSET 0.000000 0.000000 0.100000
					}
				}
			}
			JOINT LeftUpLegEnd
			{
				OFFSET 0.000000 0.000000 0.000000
				CHANNELS 6 Xposition Yposition Zposition Zrotation Yrotation Xrotation
				End Site
				{
					OFFSET 0.000000 0.000000 0.099998
				}
			}
		}
	}
}
MOTION
Frames: 2
Frame Time: 0.016667
41.584412 -58.946167 83.476067 -24.636859 -4.946085 -15.988909 0.000002 2.080054 8.814222 0.745661 4.253212 9.448091 0.000002 -0.000016 8.844144 0.073102 -0.438485 5.197037 -0.000002 0.000001 11.682265 2.963272 0.270787 6.167552 0.000027 0.000015 11.746697 0.845076 0.244315 3.734061 -0.000004 0.000032 17.658295 4.772225 2.942955 -0.626146 -0.000043 -0.000018 5.101538 3.024240 -1.347661 -5.353674 -0.000004 -0.000024 5.101525 1.391073 -1.951355 -13.742775 0.000004 0.000002 11.655060 -0.000000 0.000000 -0.000000 -2.625387 -0.000005 11.175220 11.407644 -87.741559 0.823087 -0.000023 0.000011 10.434704 -49.578861 -64.063971 66.060251 0.000008 -0.000008 29.628437 -10.364089 -0.920480 13.596948 -0.000049 -0.000050 22.857592 -3.188105 0.010875 -8.660314 -2.867317 -2.944229 3.959595 32.175498 -14.394817 56.080539 0.000010 0.000031 3.350399 -6.416723 5.188105 -12.107148 0.000000 -0.000013 3.756517 -4.337865 3.748709 -8.340461 0.000006 -0.000045 3.147346 -0.000001 0.000000 -0.000003 -0.086761 -2.345226 10.030891 9.922471 6.840810 10.825805 0.000001 0.000019 4.061097 -0.535067 0.000010 0.000010 0.000008 0.000022 3.248877 -0.307501 0.000000 0.002317 -0.000012 0.000012 2.639708 -0.000001 0.000000 -0.000000 0.104103 -0.006728 9.502941 5.227184 9.216753 5.039052 0.000002 0.000024 4.568718 -0.608729 -0.000005 -0.000252 0.000034 0.000022 3.654969 -0.297210 0.000000 0.001053 0.000029 -0.000008 2.741271 0.000000 -0.000002 -0.000000 0.086742 2.267545 8.921711 -2.654682 10.514101 -3.382360 -0.000014 -0.000014 4.061108 1.188235 -0.000282 -0.097135 0.000002 0.000012 3.655008 0.146529 0.000003 -0.075858 -0.000006 -0.000007 2.741236 0.000001 -0.000000 0.000001 -0.173500 4.467293 7.976994 -10.868421 9.280353 -12.255673 0.000001 -0.000015 3.350396 2.009365 -0.000006 0.000158 0.000006 0.000027 2.842792 0.004797 -0.000002 -0.007626 -0.000015 -0.000001 2.639703 0.000000 0.000000 0.000001 -0.000004 0.000043 0.000009 0.000003 -0.000000 0.000001 0.000013 0.000004 0.000027 -0.000000 -0.000000 -0.000002 2.625375 0.000013 11.175213 -14.006515 87.857181 -0.266241 0.000008 0.000006 10.813637 52.949819 55.048367 47.930347 -0.000017 0.000038 28.724802 -23.550079 4.335898 33.259306 0.644382 0.328785 25.716158 -42.504397 -3.866065 -9.696861 2.867317 -2.944275 3.959587 -31.969950 15.218336 54.724954 -0.000013 -0.000019 3.350407 8.189149 -6.261734 -15.233321 0.000008 0.000000 3.756508 5.506904 -4.583285 -10.473305 0.000014 -0.000007 3.100038 0.000001 0.000003 -0.000001 0.086768 -2.345280 10.030888 7.717748 -5.299616 11.291533 0.000002 0.000022 4.061086 -0.529374 -0.000204 0.000072 0.000009 0.000001 3.248880 -0.028212 0.000010 0.000158 -0.000002 0.000010 2.639723 0.000000 0.000000 -0.000000 -0.104082 -0.006796 9.502964 2.742516 -4.647916 8.654647 -0.000001 -0.000011 4.568733 -0.617904 -0.000004 -0.000650 0.000001 -0.000010 3.654994 -0.250978 0.000002 -0.001956 0.000003 -0.000001 2.741255 -0.000000 -0.000000 -0.000002 -0.086770 2.267485 8.921728 -5.054047 -2.754509 6.740121 -0.000008 -0.000027 4.061094 1.135763 0.000153 -0.000263 -0.000004 -0.000012 3.654996 0.118329 -0.000006 0.006103 0.000002 0.000003 2.741257 0.000000 0.000000 -0.000000 0.173492 4.467218 7.976995 -13.415595 -1.837267 2.563358 -0.000005 -0.000020 3.350404 2.236243 0.000011 0.000032 0.000007 0.000028 2.842775 0.199947 -0.000001 0.000240 0.000005 0.000001 2.639732 -0.000000 0.000000 0.000000 -0.000004 -0.000002 0.000039 -0.000000 0.000000 -0.000002 -0.000008 -0.000018 0.000016 0.000003 0.000003 -0.000002 -11.289972 -0.000054 0.000007 32.931521 15.366348 -1.287239 -0.000006 0.000049 -38.200283 -2.311849 1.286119 29.072622 0.000019 0.000012 -39.900852 12.485833 -7.575752 10.874094 0.000009 -15.261642 0.000005 2.186350 0.635895 -23.895010 0.000007 -7.370665 -0.000000 -0.000000 0.000000 -0.000000 0.000004 0.000058 -0.000001 0.000001 0.000000 0.000002 -0.000001 -0.000001 -0.000007 0.000000 -0.000000 -0.000001 11.315658 0.000047 -0.000006 12.259450 -3.948499 6.524014 -0.000028 0.000093 -38.200253 0.408521 -0.282358 34.649970 -0.000021 -0.000009 -39.900867 18.868785 9.006107 3.859642 -0.000007 -15.261650 0.000024 -2.188322 0.019497 -17.823438 0.000004 -7.539982 0.000002 0.000001 0.000000 0.000001 0.000002 0.000002 -0.000001 -0.000000 0.000000 0.000002 -0.000009 0.000005 -0.000006 -0.000001 0.000000 -0.000001 
41.762238 -58.860413 83.420959 -24.896822 -4.534544 -15.843508 0.000014 2.080059 8.814251 0.739112 4.429135 9.495547 -0.000004 -0.000005 8.844154 0.080317 -0.212554 5.251980 -0.000030 0.000010 11.682281 1.935476 -0.112851 6.206782 0.000008 0.000026 11.746695 0.425848 -0.573249 3.610392 -0.000039 -0.000027 17.658276 4.605025 2.481663 -1.203446 -0.000005 0.000018 5.101526 3.185486 -1.342489 -5.629878 0.000005 0.000022 5.101525 1.344142 -2.013033 -13.413179 -0.000001 0.000056 11.655063 0.000001 0.000000 0.000000 -2.625402 -0.000017 11.175219 11.166515 -87.726424 0.828422 -0.000015 0.000011 10.434710 -48.513741 -64.632864 64.969039 -0.000003 0.000015 29.628424 -10.805510 -0.789702 14.921382 -0.000017 -0.000044 22.857607 -8.424642 1.298446 -7.601196 -2.867310 -2.944305 3.959557 32.088919 -14.722029 55.537228 0.000021 0.000004 3.350407 -7.118202 5.629082 -13.352946 -0.000010 -0.000027 3.756512 -4.801577 4.087756 -9.191234 0.000003 0.000021 3.147341 -0.000001 -0.000000 0.000002 -0.086748 -2.345287 10.030907 9.252733 3.605042 16.222662 0.000014 -0.000016 4.061107 -0.536198 0.024364 -0.000220 0.000002 0.000027 3.248876 -0.310200 -0.013469 0.002836 0.000014 0.000001 2.639730 0.000000 -0.000003 -0.000004 0.104094 -0.006777 9.502964 4.870844 7.257373 9.208972 0.000006 -0.000022 4.568737 -0.609189 -0.100676 0.000805 0.000014 0.000077 3.655002 -0.299399 0.055458 0.000798 0.000008 0.000006 2.741258 0.000001 -0.000000 -0.000001 0.086748 2.267477 8.921703 -2.756879 10.212215 -0.055726 -0.000002 -0.000029 4.061091 1.189828 -0.000307 -0.099702 0.000001 0.000002 3.654983 0.147882 0.000009 -0.077869 -0.000015 -0.000004 2.741249 0.000001 0.000001 -0.000000 -0.173496 4.467251 7.976986 -10.892392 10.436840 -9.924344 0.000014 0.000024 3.350427 2.009581 -0.000732 0.000120 -0.000012 0.000021 2.842745 0.004940 0.000069 -0.007597 -0.000003 0.000010 2.639694 -0.000002 0.000002 -0.000001 0.000014 0.000005 -0.000011 -0.000001 -0.000000 -0.000001 -0.000011 0.000013 0.000018 -0.000001 -0.000000 -0.000001 2.625410 0.000001 11.175240 -14.783128 87.181757 -0.285614 -0.000015 0.000001 10.813629 60.140109 49.558432 54.890440 0.000004 0.000008 28.724749 -22.461970 2.058167 36.013702 0.644332 0.328850 25.716167 -38.202064 -2.099483 -9.230932 2.867310 -2.944275 3.959633 -31.933132 15.385302 54.454923 0.000031 0.000023 3.350422 8.550982 -6.464779 -15.863227 0.000010 -0.000023 3.756519 5.744559 -4.744940 -10.902219 -0.000009 -0.000057 3.100029 -0.000001 -0.000001 -0.000003 0.086752 -2.345291 10.030882 7.765761 -5.006111 11.451421 -0.000011 -0.000016 4.061110 -0.530389 -0.000271 0.000062 0.000008 -0.000004 3.248895 -0.029173 0.000006 0.000160 -0.000008 0.000015 2.639729 -0.000002 0.000000 0.000000 -0.104113 -0.006784 9.502966 2.786456 -4.388133 8.409784 0.000003 -0.000014 4.568743 -0.619494 -0.055591 -0.000056 -0.000000 0.000009 3.654975 -0.253301 0.031067 -0.002187 -0.000013 0.000008 2.741231 -0.000001 -0.000000 0.000002 -0.086744 2.267462 8.921721 -5.053494 -2.768379 5.979954 0.000002 0.000029 4.061098 1.137299 0.000239 -0.000270 0.000006 -0.000023 3.654982 0.119961 -0.000001 0.006125 0.000001 -0.000004 2.741243 0.000000 0.000001 -0.000002 0.173486 4.467222 7.977000 -13.444150 -2.183519 1.542872 0.000001 -0.000008 3.350406 2.237169 -0.000012 0.000033 -0.000011 -0.000009 2.842744 0.200744 -0.000001 0.000244 -0.000001 0.000004 2.639735 -0.000000 -0.000000 -0.000000 0.000021 -0.000020 0.000031 0.000004 0.000000 -0.000002 -0.000018 -0.000011 0.000009 0.000001 -0.000002 -0.000001 -11.289982 -0.000003 0.000023 32.651002 15.251681 -1.607465 -0.000011 0.000034 -38.200314 -2.305832 1.263186 28.699700 -0.000002 0.000005 -39.900852 12.239319 -7.619437 11.156155 0.000012 -15.261595 0.000024 2.151000 0.646506 -24.199806 0.000002 -7.370663 0.000001 -0.000001 -0.000000 -0.000000 0.000004 0.000066 -0.000002 -0.000001 0.000000 0.000002 0.000007 -0.000000 -0.000008 0.000000 -0.000001 -0.000001 11.315641 0.000061 0.000017 12.386090 -4.250323 5.798233 -0.000027 0.000066 -38.200306 0.374582 -0.267579 35.537891 -0.000016 -0.000022 -39.900860 18.963455 9.071378 3.590662 -0.000012 -15.261658 0.000011 -2.190413 0.017899 -17.844953 0.000003 -7.539917 0.000003 -0.000000 0.000000 -0.000000 0.000000 -0.000001 0.000009 0.000000 -0.000000 0.000001 -0.000002 0.000064 -0.000002 -0.000000 -0.000000 -0.000001 
